<?xml version="1.0" encoding="UTF-8" standalone="no"?>
<!-- Created with Inkscape (http://www.inkscape.org/) -->

<svg
   xmlns:dc="http://purl.org/dc/elements/1.1/"
   xmlns:cc="http://creativecommons.org/ns#"
   xmlns:rdf="http://www.w3.org/1999/02/22-rdf-syntax-ns#"
   xmlns:svg="http://www.w3.org/2000/svg"
   xmlns="http://www.w3.org/2000/svg"
   xmlns:xlink="http://www.w3.org/1999/xlink"
   xmlns:inkscape="http://www.inkscape.org/namespaces/inkscape"
   version="1.0"
   width="96"
   height="96"
   id="svg2408"
   style="display:inline">
  <defs
     id="defs2410">
    <linearGradient
       x1="56"
       y1="16"
       x2="56"
       y2="80"
       id="linearGradient3736"
       xlink:href="#linearGradient3904"
       gradientUnits="userSpaceOnUse"
       gradientTransform="matrix(1.1769656,0,0,1.1769656,-8.4943497,-10.972669)" />
    <linearGradient
       x1="11"
       y1="3.9374998"
       x2="11"
       y2="18.083122"
       id="linearGradient3904"
       gradientUnits="userSpaceOnUse">
      <stop
         id="stop3906"
         style="stop-color:#323232;stop-opacity:1"
         offset="0" />
      <stop
         id="stop3908"
         style="stop-color:#787878;stop-opacity:1"
         offset="1" />
    </linearGradient>
  </defs>
  <metadata
     id="metadata2413">
    <rdf:RDF>
      <cc:Work
         rdf:about="">
        <dc:format>image/svg+xml</dc:format>
        <dc:type
           rdf:resource="http://purl.org/dc/dcmitype/StillImage" />
        <dc:title />
      </cc:Work>
    </rdf:RDF>
  </metadata>
  <g
     id="layer4">
    <path
       d="m 47.999984,7.9147028 c -8.214583,0 -14.873816,6.1608252 -14.873816,13.7605892 0.01996,0.870946 0.03259,1.865384 0.123954,2.948696 -1.300022,0.686956 -1.469475,3.37341 -0.309873,6.081684 0.44715,1.044324 1.057032,1.892872 1.673305,2.580107 0.02054,0.02298 0.04131,0.03896 0.06198,0.06135 0.147104,0.715558 0.255919,1.28152 0.433823,2.08866 0.551125,1.638899 2.828526,4.721644 4.833989,7.371743 0.199993,2.044365 0.216445,4.063423 -0.185935,6.388847 -5.772401,4.747156 -20.535582,6.880292 -20.513455,11.794789 L 17.260788,73.76885 c 0,2.617919 3.945356,5.014904 10.225746,6.634569 l 0.867639,3.50158 a 2.1598755,2.1409499 0 0 0 1.363435,1.412918 c 0.27876,0.10692 0.475488,0.33302 1.239482,0.552875 4.024505,1.158173 10.152507,1.965791 17.042913,1.965791 6.890407,0 13.080382,-0.807618 17.104886,-1.965791 0.763994,-0.219855 0.960726,-0.44601 1.239482,-0.552875 a 2.1598755,2.1409499 0 0 0 1.301463,-1.351489 l 1.05356,-3.685873 c 6.126946,-1.6171 10.039824,-3.930652 10.039824,-6.511705 L 76.756033,60.99118 c -0.02355,-4.206151 -14.873817,-6.880291 -20.575444,-11.794798 -0.23085,-1.882526 -0.241496,-3.736037 -0.123979,-5.590224 1.823339,-2.787969 4.223855,-6.355993 4.833988,-8.170355 0.22424,-0.93961 0.321638,-1.588991 0.495793,-2.395817 0.538431,-0.65234 1.027944,-1.406094 1.425407,-2.334382 1.101216,-2.571899 0.998401,-5.06234 -0.123954,-5.897394 0.07842,-1.117516 0.153128,-2.177887 0.185915,-3.13299 1.1e-5,-7.599764 -6.65922,-13.7605859 -14.873801,-13.7605859 z"
       inkscape:connector-curvature="0"
       id="path3798"
       style="fill:url(#linearGradient3736);fill-opacity:1;stroke:none;display:inline;enable-background:new" />
    <path
       d="m 48,7.9146341 c -8.214583,0 -14.868293,6.1758449 -14.868293,13.7756099 0.01996,0.870946 0.02571,1.843517 0.117073,2.926829 -1.300021,0.686957 -1.471797,3.379531 -0.312195,6.087805 0.44715,1.044324 1.061776,1.888375 1.678049,2.57561 0.02054,0.02298 0.05738,0.05566 0.07805,0.07805 0.147104,0.715557 0.251364,1.261153 0.429268,2.068292 0.551126,1.6389 2.833562,4.725511 4.839025,7.37561 0.199993,2.044365 0.207257,4.074576 -0.195122,6.4 -5.772402,4.747155 -20.548957,6.870869 -20.52683,11.785366 l -1.990244,12.8 c 0,2.617918 3.944,5.014482 10.224391,6.634146 l 0.897561,3.473171 A 2.1598755,2.1409499 0 0 0 29.736585,85.3 c 0.278761,0.106921 0.445763,0.365511 1.209756,0.585366 4.024505,1.158173 10.163253,1.951219 17.053659,1.951219 6.890407,0 13.068179,-0.793046 17.092683,-1.951219 0.763994,-0.219855 0.970024,-0.4785 1.24878,-0.585366 a 2.1598755,2.1409499 0 0 0 1.287805,-1.326829 l 1.053659,-3.707317 c 6.126946,-1.6171 10.068293,-3.896996 10.068293,-6.478049 l -1.990244,-12.8 c -0.02355,-4.206151 -14.864227,-6.870859 -20.565854,-11.785366 -0.23085,-1.882527 -0.273614,-3.726301 -0.156098,-5.580488 1.82334,-2.787968 4.228892,-6.38076 4.839025,-8.195122 0.22424,-0.93961 0.333162,-1.573662 0.507317,-2.380488 0.53843,-0.65234 1.046439,-1.413174 1.443902,-2.341463 1.101216,-2.571898 0.966258,-5.05763 -0.156097,-5.892683 0.07842,-1.117516 0.162335,-2.166848 0.195122,-3.121951 C 62.868304,14.090481 56.214582,7.9146341 48,7.9146341 z m 0,2.4195119 c 6.979504,0 12.402872,5.116943 12.44878,11.278049 1.95e-4,0.0262 0,0.05181 0,0.07805 -0.03178,0.860134 -0.07867,1.86266 -0.156097,2.965854 a 2.4052244,2.4052244 0 0 0 0.780488,1.951219 c -0.06077,-0.04484 0.101151,0.12709 0.117073,0.585366 0.02123,0.611036 -0.1591,1.580062 -0.585366,2.57561 -0.292763,0.683757 -0.665893,1.239017 -1.092683,1.756097 a 2.4052244,2.4052244 0 0 0 -0.468293,1.014634 c -0.172906,0.801041 -0.286441,1.403136 -0.468292,2.185366 -0.175285,0.487214 -0.863968,1.772856 -1.717073,3.160976 -0.87379,1.421774 -1.930953,3.006356 -2.848781,4.409756 a 2.4052244,2.4052244 0 0 0 -0.390244,1.170732 c -0.126212,1.991384 -0.05445,4.013568 0.195122,6.04878 a 2.4052244,2.4052244 0 0 0 0.819512,1.521951 c 3.469616,2.990629 8.705182,4.773439 13.073171,6.556098 2.183995,0.891329 4.153174,1.735103 5.385366,2.497561 0.616096,0.381229 1.03698,0.775707 1.209756,0.97561 0.03323,0.03844 0.02529,0.02104 0.03902,0.03902 0.0035,0.0097 -0.0032,0.03152 0,0.03902 a 2.4052244,2.4052244 0 0 0 0.03902,0.195122 l 1.951219,12.448781 c 0,0.06636 -0.183304,0.675347 -1.6,1.560975 -1.416695,0.885629 -3.756311,1.805757 -6.67317,2.57561 a 2.4052244,2.4052244 0 0 0 -1.678049,1.678049 l -0.97561,3.473171 c -0.834654,0.339182 -0.611788,0.402619 -0.97561,0.507317 -3.67631,1.057969 -9.723394,1.834146 -16.429268,1.834146 -6.705873,0 -12.709962,-0.775034 -16.390244,-1.834146 -0.354816,-0.1021 0.01256,-0.114463 -0.97561,-0.507317 l -0.819512,-3.239025 a 2.4052244,2.4052244 0 0 0 -1.756097,-1.756097 c -2.980329,-0.768603 -5.319549,-1.702109 -6.75122,-2.614634 -1.431671,-0.912525 -1.639024,-1.576825 -1.639024,-1.678049 l 1.951219,-12.448781 a 2.4052244,2.4052244 0 0 0 0.03902,-0.351219 c -1.03e-4,-0.02269 0.103573,-0.473138 1.287804,-1.248781 1.184234,-0.775642 3.106644,-1.606874 5.268293,-2.458536 4.323299,-1.703324 9.545276,-3.303579 13.073171,-6.204878 A 2.4052244,2.4052244 0 0 0 42.146327,49.6317 c 0.443306,-2.561942 0.409588,-4.871114 0.195122,-7.063414 A 2.4052244,2.4052244 0 0 0 41.873157,41.35853 c -0.996538,-1.316866 -2.042764,-2.739028 -2.887805,-3.980488 -0.830789,-1.220521 -1.443778,-2.367777 -1.560976,-2.692683 -0.002,-0.0056 -0.03731,-0.03394 -0.03902,-0.03903 -0.13314,-0.619166 -0.221262,-1.123944 -0.35122,-1.756097 a 2.4052244,2.4052244 0 0 0 -0.585356,-1.17072 c -0.195685,-0.212002 -0.215488,-0.236406 -0.03902,-0.03902 -0.493447,-0.550267 -0.930948,-1.169893 -1.24878,-1.912195 -0.449377,-1.049528 -0.620102,-2.101508 -0.585366,-2.731708 0.01737,-0.315099 0.07485,-0.443781 0.07805,-0.468292 a 2.4052244,2.4052244 0 0 0 0.975609,-2.146342 c -0.08078,-0.957958 -0.05806,-1.842881 -0.07805,-2.731707 0,-0.01311 -4.9e-5,-0.02591 0,-0.03902 C 35.574247,15.472638 41.005657,10.334146 48,10.334146 z"
       inkscape:connector-curvature="0"
       id="path3698"
       style="opacity:0.1;fill:#000000;fill-opacity:1;stroke:none;display:inline;enable-background:new" />
    <path
       d="m 48,7.9146341 c -8.214583,0 -14.868293,6.1758449 -14.868293,13.7756099 0.01996,0.870946 0.02571,1.843517 0.117073,2.926829 -1.300021,0.686957 -1.471797,3.379531 -0.312195,6.087805 0.44715,1.044324 1.061776,1.888375 1.678049,2.57561 0.02054,0.02298 0.05738,0.05566 0.07805,0.07805 0.147104,0.715557 0.251364,1.261153 0.429268,2.068292 0.551126,1.6389 2.833562,4.725511 4.839025,7.37561 0.199993,2.044365 0.207257,4.074576 -0.195122,6.4 -5.772402,4.747155 -20.548957,6.870869 -20.52683,11.785366 l -1.990244,12.8 c 0,2.617918 3.944,5.014482 10.224391,6.634146 l 0.897561,3.473171 A 2.1598755,2.1409499 0 0 0 29.736585,85.3 c 0.278761,0.106921 0.445763,0.365511 1.209756,0.585366 4.024505,1.158173 10.163253,1.951219 17.053659,1.951219 6.890407,0 13.068179,-0.793046 17.092683,-1.951219 0.763994,-0.219855 0.970024,-0.4785 1.24878,-0.585366 a 2.1598755,2.1409499 0 0 0 1.287805,-1.326829 l 1.053659,-3.707317 c 6.126946,-1.6171 10.068293,-3.896996 10.068293,-6.478049 l -1.990244,-12.8 c -0.02355,-4.206151 -14.864227,-6.870859 -20.565854,-11.785366 -0.23085,-1.882527 -0.273614,-3.726301 -0.156098,-5.580488 1.82334,-2.787968 4.228892,-6.38076 4.839025,-8.195122 0.22424,-0.93961 0.333162,-1.573662 0.507317,-2.380488 0.53843,-0.65234 1.046439,-1.413174 1.443902,-2.341463 1.101216,-2.571898 0.966258,-5.05763 -0.156097,-5.892683 0.07842,-1.117516 0.162335,-2.166848 0.195122,-3.121951 C 62.868304,14.090481 56.214582,7.9146341 48,7.9146341 z m 0,1.3268293 c 7.541909,0 13.518441,5.5942056 13.541463,12.4097566 4.5e-5,0.01315 0,0.02587 0,0.03902 -0.03216,0.902954 -0.117135,1.932588 -0.195122,3.043902 a 1.3132106,1.3132106 0 0 0 0.546342,1.131708 c 0.0808,0.0601 0.362136,0.478697 0.390244,1.287805 0.02811,0.809107 -0.180695,1.916507 -0.663415,3.043902 -0.340299,0.794779 -0.771304,1.450778 -1.24878,2.029268 a 1.3132106,1.3132106 0 0 0 -0.273171,0.546342 c -0.171035,0.792372 -0.274031,1.394189 -0.468293,2.22439 -0.01049,0.04481 -0.02799,0.07082 -0.03902,0.117073 -0.245519,0.681948 -0.934435,1.955643 -1.795122,3.356098 -0.888219,1.445253 -1.933749,3.049655 -2.848781,4.44878 a 1.3132106,1.3132106 0 0 0 -0.234146,0.62439 c -0.122268,1.929094 -0.04595,3.848744 0.195122,5.814635 a 1.3132106,1.3132106 0 0 0 0.429268,0.819512 c 3.188669,2.748467 8.366732,4.606626 12.760976,6.4 2.197122,0.896687 4.195077,1.781514 5.541463,2.614634 0.673194,0.416561 1.198275,0.802364 1.482927,1.131707 0.284652,0.329344 0.311411,0.52332 0.312195,0.663415 a 1.3132106,1.3132106 0 0 0 0.03902,0.195122 l 1.951219,12.604878 c 0,0.622156 -0.538749,1.516991 -2.107317,2.497561 -1.568568,0.98057 -4.001942,1.90526 -6.985366,2.692683 a 1.3132106,1.3132106 0 0 0 -0.897561,0.936585 l -1.014634,3.629268 -0.03902,0.03902 c -0.01186,0.0298 -0.0019,0.04326 0,0.03902 0.0019,-0.0042 -0.02548,-0.02908 -0.03902,0 -0.0271,0.05817 0.03031,0.02149 0,0.07805 -0.03031,0.05656 -0.0056,-0.01575 -0.03902,0.03902 -0.03342,0.05477 -0.0026,-0.0138 -0.03902,0.03902 -0.0393,0.05071 0.003,-0.0094 -0.03902,0.03902 -0.04205,0.04844 0.0056,-0.007 -0.03902,0.03903 -0.04468,0.04603 0.0081,-0.0045 -0.03902,0.03902 -0.04715,0.04347 0.01049,-0.0017 -0.03902,0.03902 -0.02475,0.02039 -0.01265,0.03911 0,0.03902 -0.05167,0.03799 0.01467,-0.03507 -0.03902,0 -0.0537,0.03507 0.01652,0.007 -0.03902,0.03902 -0.05554,0.03203 -0.02082,0.01011 -0.07805,0.03902 -0.05723,0.02891 0.01972,-0.02571 -0.03903,0 -0.05874,0.02571 0.02104,-0.02243 -0.03902,0 a 1.3132106,1.3132106 0 0 0 0,0.03902 c -0.73806,0.282946 -0.570439,0.384824 -1.131708,0.546341 -3.834435,1.10351 -9.951847,1.873217 -16.741503,1.873217 -6.789654,0 -12.865874,-0.769084 -16.702439,-1.873171 -0.549903,-0.158246 -0.316695,-0.248706 -1.092683,-0.546341 a 1.3132106,1.3132106 0 0 0 -0.03902,-0.03902 c -0.0646,-0.02199 0.02418,0.02575 -0.03902,0 -0.0632,-0.02575 -0.01646,-0.0096 -0.07805,-0.03902 -0.06159,-0.02942 0.02073,0.03299 -0.03902,0 -0.05975,-0.03299 0.01868,-0.0026 -0.03902,-0.03902 -0.05771,-0.03645 0.01645,7.65e-4 -0.03903,-0.03902 -0.05547,-0.03979 0.014,0.004 -0.03902,-0.03902 -0.02651,-0.02149 -0.0422,-0.01111 -0.03902,0 -0.0504,-0.04605 0.0086,0.01 -0.03902,-0.03902 -0.04759,-0.04895 0.0056,0.01266 -0.03902,-0.03903 0.01074,0.0035 0.02074,-0.01186 0,-0.03902 -0.04149,-0.05425 -8.28e-4,0.01758 -0.03902,-0.03902 -0.0382,-0.05661 -0.0042,0.01976 -0.03902,-0.03902 -0.03478,-0.05878 0.03122,0.02172 0,-0.03902 -0.03122,-0.06074 -0.01149,0.02348 -0.03902,-0.03903 -0.01377,-0.03124 -0.0019,-0.04358 0,-0.03902 l 0,-0.03902 c -0.02379,-0.06403 -0.01908,0.02631 -0.03902,-0.03902 l -0.858536,-3.395122 a 1.3132106,1.3132106 0 0 0 -0.97561,-0.97561 C 24.732455,78.346824 22.307705,77.37415 20.721951,76.363415 19.136197,75.352679 18.57561,74.437362 18.57561,73.787805 l 1.951219,-12.604878 a 1.3132106,1.3132106 0 0 0 0.03903,-0.195122 c -0.0026,-0.570207 0.480062,-1.285011 1.795122,-2.146342 1.315059,-0.86133 3.281419,-1.715931 5.463414,-2.575609 4.36399,-1.719356 9.524422,-3.387076 12.760976,-6.048781 a 1.3132106,1.3132106 0 0 0 0.468293,-0.780488 c 0.424724,-2.454559 0.403016,-4.626083 0.195121,-6.751219 A 1.3132106,1.3132106 0 0 0 41.014634,42.021951 C 40.015284,40.70137 38.953341,39.274009 38.087805,38.002439 37.222269,36.73087 36.551122,35.533993 36.370732,34.997561 36.219183,34.300467 36.118121,33.754857 35.980488,33.085366 a 1.3132106,1.3132106 0 0 0 -0.312195,-0.62439 c -0.02906,-0.03148 -0.05848,-0.02185 -0.07805,-0.03903 -0.549213,-0.612452 -1.067358,-1.344965 -1.443903,-2.22439 -0.508592,-1.187826 -0.709846,-2.396641 -0.663414,-3.239024 0.04643,-0.842384 0.345675,-1.147181 0.390244,-1.170732 A 1.3132106,1.3132106 0 0 0 34.57561,24.5 c -0.08504,-1.008357 -0.09738,-1.933017 -0.117073,-2.809756 0,-0.01315 -4.5e-5,-0.02587 0,-0.03902 C 34.481564,14.835665 40.45809,9.2414634 48,9.2414634 z"
       inkscape:connector-curvature="0"
       id="path3691"
       style="opacity:0.15;fill:#000000;fill-opacity:1;stroke:none;display:inline;enable-background:new" />
    <path
       d="m 48,7.9146341 c -8.214583,0 -14.868293,6.1758449 -14.868293,13.7756099 0.006,0.261426 0.03203,0.536769 0.03903,0.819512 C 33.418866,15.111119 39.9426,9.1634146 48,9.1634146 c 7.972094,0 14.452049,5.8232094 14.829268,13.1121954 0.0089,-0.186217 0.03288,-0.406237 0.03903,-0.585366 C 62.868304,14.090481 56.214582,7.9146341 48,7.9146341 z M 33.170732,24.656098 c -0.761253,0.462203 -1.091153,1.659631 -0.97561,3.121951 0.118984,-0.901763 0.484303,-1.611337 1.053658,-1.912195 -0.03543,-0.420088 -0.06128,-0.818416 -0.07805,-1.209756 z m 29.580488,0.234146 c -0.02635,0.400557 -0.04863,0.751555 -0.07805,1.170732 0.509287,0.37892 0.786342,1.115701 0.858536,2.029268 0.170559,-1.442017 -0.114138,-2.62971 -0.780487,-3.2 z m -22.712196,21.42439 c -0.03631,0.918537 -0.09903,1.881387 -0.27317,2.887805 -5.772402,4.747155 -20.548957,6.870869 -20.52683,11.785366 l -1.990244,12.8 c 0,0.216796 0.02485,0.41094 0.07805,0.62439 l 1.912195,-12.17561 c -0.02213,-4.914497 14.754428,-7.03821 20.52683,-11.785365 0.254032,-1.468097 0.2938,-2.829249 0.27317,-4.136586 z M 56,46.821951 c -0.01024,1.203326 0.04557,2.409658 0.195122,3.629269 5.701627,4.914506 20.542302,7.579214 20.565854,11.785365 l 1.912195,12.17561 c 0.0527,-0.209831 0.07805,-0.410646 0.07805,-0.62439 l -1.990244,-12.8 C 76.737424,56.781654 61.896749,54.116946 56.195122,49.202439 56.097317,48.404869 56.025752,47.611363 56,46.821951 z"
       inkscape:connector-curvature="0"
       id="path3682"
       style="opacity:0.5;fill:#000000;fill-opacity:1;stroke:none;display:inline;enable-background:new" />
    <path
       d="m 62.829268,22.27561 c -0.03833,0.806679 -0.09238,1.628658 -0.156097,2.536585 0.02806,0.02088 0.05126,0.05513 0.07805,0.07805 0.04391,-0.667318 0.09658,-1.354372 0.117073,-1.95122 0,-0.224339 -0.02755,-0.441705 -0.03903,-0.663414 z m -29.658536,0.234146 c -0.0049,0.144332 -0.03903,0.28385 -0.03903,0.429268 0.01224,0.53321 0.01255,1.099234 0.03903,1.717074 0.0241,-0.01464 0.05311,-0.02585 0.07805,-0.03902 -0.06394,-0.758142 -0.06173,-1.448097 -0.07805,-2.107317 z m -0.97561,5.346342 c -0.132984,1.147154 0.103898,2.608506 0.741463,4.097561 0.44715,1.044323 1.061776,1.888374 1.678049,2.575609 0.02054,0.02298 0.05738,0.05566 0.07805,0.07805 0.147104,0.715558 0.251364,1.261153 0.429268,2.068293 0.551126,1.638899 2.833562,4.72551 4.839025,7.37561 0.07373,0.753707 0.066,1.499965 0.07805,2.263414 0.0476,-1.203828 0.03539,-2.35261 -0.07805,-3.512195 -2.005463,-2.650099 -4.287899,-5.73671 -4.839025,-7.37561 -0.177904,-0.807139 -0.282164,-1.352735 -0.429268,-2.068292 -0.02067,-0.02239 -0.05751,-0.05507 -0.07805,-0.07805 -0.616273,-0.687235 -1.230899,-1.531286 -1.678049,-2.57561 -0.422958,-0.987825 -0.662504,-1.962727 -0.741463,-2.84878 z m 31.336585,0.234146 c -0.09679,0.818313 -0.31373,1.706801 -0.702439,2.614634 -0.397463,0.928289 -0.905472,1.689123 -1.443902,2.341463 -0.174155,0.806826 -0.283077,1.440878 -0.507317,2.380488 -0.610133,1.814362 -3.015685,5.407154 -4.839025,8.195122 -0.02647,0.417762 0.01236,0.830748 0,1.248781 1.82334,-2.787969 4.228892,-6.38076 4.839025,-8.195122 0.22424,-0.93961 0.333162,-1.573662 0.507317,-2.380488 0.53843,-0.65234 1.046439,-1.413175 1.443902,-2.341463 0.60152,-1.404856 0.789344,-2.763687 0.702439,-3.863415 z m -46.204878,46.321951 -0.07805,0.62439 c 0,2.617919 3.944,5.014482 10.224391,6.634147 l 0.897561,3.47317 a 2.1598755,2.1409499 0 0 0 1.365853,1.404878 c 0.278761,0.106921 0.445763,0.365511 1.209756,0.585366 4.024505,1.158173 10.163253,1.95122 17.053659,1.95122 6.890407,0 13.068179,-0.793047 17.092683,-1.95122 0.763994,-0.219855 0.970024,-0.4785 1.24878,-0.585366 a 2.1598755,2.1409499 0 0 0 1.287805,-1.326829 l 1.053659,-3.707317 C 74.809873,79.897535 78.75122,77.617639 78.75122,75.036585 l -0.07805,-0.62439 c -0.583716,2.323976 -4.370686,4.370475 -9.990244,5.853659 l -1.053659,3.707317 A 2.1598755,2.1409499 0 0 1 66.341463,85.3 c -0.278756,0.106871 -0.484786,0.365511 -1.24878,0.585366 C 61.068179,87.043539 54.890407,87.836585 48,87.836585 c -6.890406,0 -13.029154,-0.793046 -17.053659,-1.951219 C 30.182348,85.665511 30.015346,85.406921 29.736585,85.3 A 2.1598755,2.1409499 0 0 1 28.370732,83.895122 L 27.473171,80.421951 C 21.712875,78.936416 17.916036,76.776255 17.326829,74.412195 z"
       inkscape:connector-curvature="0"
       id="path3705"
       style="opacity:0.5;fill:#ffffff;fill-opacity:1;stroke:none;display:inline;enable-background:new" />
  </g>
</svg>
