<?xml version="1.0" encoding="UTF-8" standalone="no"?>
<!-- Created with Inkscape (http://www.inkscape.org/) -->

<svg
   xmlns:dc="http://purl.org/dc/elements/1.1/"
   xmlns:cc="http://creativecommons.org/ns#"
   xmlns:rdf="http://www.w3.org/1999/02/22-rdf-syntax-ns#"
   xmlns:svg="http://www.w3.org/2000/svg"
   xmlns="http://www.w3.org/2000/svg"
   xmlns:xlink="http://www.w3.org/1999/xlink"
   xmlns:sodipodi="http://sodipodi.sourceforge.net/DTD/sodipodi-0.dtd"
   xmlns:inkscape="http://www.inkscape.org/namespaces/inkscape"
   version="1.0"
   width="256"
   height="256"
   id="svg2408"
   inkscape:version="0.48.1 r9760"
   sodipodi:docname="lxde-logout.svg">
  <sodipodi:namedview
     pagecolor="#ffffff"
     bordercolor="#666666"
     borderopacity="1"
     objecttolerance="10"
     gridtolerance="10"
     guidetolerance="10"
     inkscape:pageopacity="0"
     inkscape:pageshadow="2"
     inkscape:window-width="983"
     inkscape:window-height="534"
     id="namedview134"
     showgrid="false"
     inkscape:zoom="1.4882812"
     inkscape:cx="128"
     inkscape:cy="128"
     inkscape:window-x="41"
     inkscape:window-y="24"
     inkscape:window-maximized="1"
     inkscape:current-layer="svg2408" />
  <defs
     id="defs2410">
    <linearGradient
       x1="45.447727"
       y1="92.539597"
       x2="45.447727"
       y2="7.0165396"
       id="ButtonShadow"
       gradientUnits="userSpaceOnUse"
       gradientTransform="scale(1.0058652,0.994169)">
      <stop
         id="stop3750"
         style="stop-color:#000000;stop-opacity:1"
         offset="0" />
      <stop
         id="stop3752"
         style="stop-color:#000000;stop-opacity:0.58823532"
         offset="1" />
    </linearGradient>
    <filter
       color-interpolation-filters="sRGB"
       id="filter3174">
      <feGaussianBlur
         id="feGaussianBlur3176"
         stdDeviation="1.71" />
    </filter>
    <linearGradient
       id="linearGradient4281-6">
      <stop
         id="stop4283-9"
         style="stop-color:#f1f1f1;stop-opacity:1;"
         offset="0" />
      <stop
         id="stop4285-8"
         style="stop-color:#c1c1c1;stop-opacity:1;"
         offset="1" />
    </linearGradient>
    <linearGradient
       inkscape:collect="always"
       xlink:href="#linearGradient4281-6"
       id="linearGradient3730"
       gradientUnits="userSpaceOnUse"
       gradientTransform="matrix(3.8531854,0,0,3.8531854,-57.079079,-59.65582)"
       x1="48"
       y1="16"
       x2="48"
       y2="80" />
  </defs>
  <metadata
     id="metadata2413">
    <rdf:RDF>
      <cc:Work
         rdf:about="">
        <dc:format>image/svg+xml</dc:format>
        <dc:type
           rdf:resource="http://purl.org/dc/dcmitype/StillImage" />
        <dc:title />
      </cc:Work>
    </rdf:RDF>
  </metadata>
  <g
     id="layer2"
     style="display:none"
     transform="translate(0,160)">
    <rect
       width="86"
       height="85"
       rx="6"
       ry="6"
       x="5"
       y="7"
       id="rect3745"
       style="opacity:0.9;fill:url(#ButtonShadow);fill-opacity:1;fill-rule:nonzero;stroke:none;filter:url(#filter3174)" />
  </g>
  <g
     id="g3723"
     transform="matrix(0.83447554,0,0,0.83447554,22.12503,23.101023)">
    <path
       d="m 127.87382,1.9951464 c -8.53866,0 -15.41274,6.8740828 -15.41274,15.4127416 l 0,92.476452 c 0,8.53866 6.87408,15.41274 15.41274,15.41274 8.53866,0 15.41274,-6.87408 15.41274,-15.41274 l 0,-92.476452 c 0,-8.5386588 -6.87408,-15.4127416 -15.41274,-15.4127416 z m 45.0341,27.6947696 a 15.414283,15.414283 0 0 0 -6.50225,28.898891 c 37.01711,21.371835 49.54826,68.223023 28.17642,105.240123 -21.37183,37.01711 -68.22302,49.54826 -105.240124,28.17642 C 52.324861,170.63352 39.793713,123.78233 61.165548,86.765225 67.929695,75.04938 77.626121,65.352951 89.341966,58.588807 A 15.428256,15.428256 0 0 0 73.929225,31.857333 C 57.528673,41.326197 43.902934,54.951932 34.434074,71.352484 4.7325768,122.79699 22.484722,189.03533 73.929225,218.73683 125.37373,248.43832 191.61207,230.68618 221.31357,179.24167 251.01506,127.79717 233.26292,61.558831 181.81842,31.857333 a 15.414283,15.414283 0 0 0 -8.9105,-2.167417 z"
       inkscape:connector-curvature="0"
       id="rect4223"
       style="color:#000000;fill:url(#linearGradient3730);fill-opacity:1;stroke:none;stroke-width:6;marker:none;visibility:visible;display:inline;overflow:visible;enable-background:accumulate" />
    <path
       d="m 158.57889,46.788427 a 15.414283,15.414283 0 0 0 7.82678,15.653565 c 24.47931,14.133134 38.192,39.418928 38.53186,65.624568 1.02323,-27.55231 -12.85963,-54.655886 -38.53186,-69.477753 a 15.414283,15.414283 0 0 1 -7.82678,-11.80038 z M 96.927925,47.510899 A 15.428256,15.428256 0 0 1 89.341966,58.588807 C 77.626121,65.352951 67.929695,75.04938 61.165548,86.765225 53.926846,99.303024 50.636045,112.9588 50.810112,126.38079 51.262291,114.20508 54.61558,101.96329 61.165548,90.618411 67.929695,78.902565 77.626121,69.206136 89.341966,62.441992 a 15.428256,15.428256 0 0 0 7.585959,-14.931093 z m 15.533155,62.373441 0,3.85318 c 0,8.53866 6.87408,15.41274 15.41274,15.41274 8.53866,0 15.41274,-6.87408 15.41274,-15.41274 l 0,-3.85318 c 0,8.53866 -6.87408,15.41274 -15.41274,15.41274 -8.53866,0 -15.41274,-6.87408 -15.41274,-15.41274 z m -92.356039,17.70057 c -0.474142,37.81767 18.867346,74.82276 53.824184,95.0051 51.444505,29.7015 117.682845,11.94935 147.384345,-39.49515 9.97245,-17.27279 14.53479,-36.24251 14.32903,-54.90789 -0.43339,17.39934 -5.04732,34.9783 -14.32903,51.0547 -29.7015,51.44451 -95.93984,69.19665 -147.384345,39.49516 C 40.16877,199.24522 20.956059,164.03948 20.105041,127.58491 z"
       inkscape:connector-curvature="0"
       id="path4289"
       style="opacity:0.6;color:#000000;fill:#ffffff;fill-opacity:1;stroke:none;stroke-width:6;marker:none;visibility:visible;display:inline;overflow:visible;enable-background:accumulate" />
    <path
       d="M 127.87382,1.9951464 C 117.8174,1.6410001 110.94119,11.837569 112.46108,21.201465 c 0.0528,30.087035 -0.10566,60.179369 0.0793,90.263095 0.61729,12.49076 17.87388,18.58254 26.24182,9.32815 6.97343,-7.19201 3.76787,-17.74988 4.50436,-26.71494 -0.0528,-26.082706 0.10562,-52.170709 -0.0793,-78.2501 C 142.58291,8.1511418 135.57586,1.8316634 127.8738,1.9951464 z m 0,7.7063708 c 8.09916,-0.1314322 8.08398,8.8077188 7.70637,14.6612628 -0.0994,29.039558 0.1989,58.097589 -0.14927,87.1256 -1.96651,10.47193 -18.18955,5.81394 -15.26347,-4.13309 0.0994,-30.514842 -0.1989,-61.048153 0.14927,-91.551441 0.57337,-3.572396 3.97556,-6.2210099 7.5571,-6.1023318 z m 45.0341,19.9883988 c -12.8143,0.0892 -19.50017,17.77992 -9.94792,26.322112 12.43897,7.899327 24.43955,17.391341 31.64279,30.596908 17.88059,29.551904 11.96208,70.467664 -13.11931,94.089104 -24.63132,24.84019 -66.59089,28.82482 -95.539842,9.23013 C 55.706054,171.24864 42.453875,130.24759 56.040885,97.406486 62.56042,80.021862 75.975617,66.044459 91.8433,56.790787 101.8908,48.818339 96.252542,30.74844 83.454102,29.9045 72.734579,29.319159 64.710567,38.309411 56.722112,44.190601 25.09255,71.210883 12.137066,117.36746 24.824885,156.93479 c 11.765659,40.32425 49.147769,71.42184 90.963755,75.54776 42.54164,5.17596 86.88622,-17.65529 106.88248,-55.66298 21.40802,-38.14412 15.81553,-88.904909 -12.92452,-121.771447 -9.02032,-10.139534 -19.57173,-19.670812 -32.18808,-24.945037 -1.51724,-0.372757 -3.09145,-0.512605 -4.6506,-0.41317 z m 0.48165,7.585959 c 6.73795,0.538132 11.74943,6.333338 17.1939,9.825218 35.40037,27.50037 47.77124,79.945837 28.24505,120.324377 -17.3183,38.80309 -61.25606,63.12914 -103.35598,57.33004 C 73.352187,220.17269 36.852992,185.9258 29.50066,144.20685 20.897256,103.35973 41.432746,58.819736 77.78241,38.479996 84.294397,34.22265 92.737466,42.923713 88.258258,49.31708 82.894566,54.733891 75.175738,57.641266 69.956236,63.481435 42.653003,88.331738 35.078242,131.67859 52.612097,164.24061 c 17.185002,34.66606 59.960653,53.57477 97.162243,42.90627 37.58476,-9.30057 65.1471,-47.08455 62.74178,-85.69046 -0.96785,-29.200722 -18.58023,-56.615951 -43.94303,-70.694396 -5.11812,-4.322627 -1.84749,-13.255821 4.81648,-13.486149 z"
       inkscape:connector-curvature="0"
       id="path4321"
       style="opacity:0.1;color:#000000;fill:#000000;fill-opacity:1;stroke:none;stroke-width:6;marker:none;visibility:visible;display:inline;overflow:visible;enable-background:accumulate" />
    <path
       d="M 127.87382,1.9951464 C 117.8174,1.6410001 110.94119,11.837569 112.46108,21.201465 c 0.0528,30.087035 -0.10566,60.179369 0.0793,90.263095 0.61729,12.49076 17.87388,18.58254 26.24182,9.32815 6.97343,-7.19201 3.76787,-17.74988 4.50436,-26.71494 -0.0528,-26.082706 0.10562,-52.170709 -0.0793,-78.2501 C 142.58291,8.1511418 135.57586,1.8316634 127.8738,1.9951464 z m 0,3.7327734 c 10.24097,-0.2864458 12.60825,10.5606872 11.67997,18.6348602 -0.1539,29.297028 0.30895,58.624227 -0.23347,87.90225 -2.55379,15.04808 -26.45374,9.73334 -23.12646,-4.90974 0,-29.98247 0,-59.964934 0,-89.947402 -0.18434,-6.309179 5.36773,-11.8637189 11.67996,-11.6799682 z m 45.0341,23.9619962 c -12.8143,0.0892 -19.50017,17.77992 -9.94792,26.322112 12.43897,7.899327 24.43955,17.391341 31.64279,30.596908 17.88059,29.551904 11.96208,70.467664 -13.11931,94.089104 -24.63132,24.84019 -66.59089,28.82482 -95.539842,9.23013 C 55.706054,171.24864 42.453875,130.24759 56.040885,97.406486 62.56042,80.021862 75.975617,66.044459 91.8433,56.790787 101.8908,48.818339 96.252542,30.74844 83.454102,29.9045 72.734579,29.319159 64.710567,38.309411 56.722112,44.190601 25.09255,71.210883 12.137066,117.36746 24.824885,156.93479 c 11.765659,40.32425 49.147769,71.42184 90.963755,75.54776 42.54164,5.17596 86.88622,-17.65529 106.88248,-55.66298 21.40802,-38.14412 15.81553,-88.904909 -12.92452,-121.771447 -9.02032,-10.139534 -19.57173,-19.670812 -32.18808,-24.945037 -1.51724,-0.372757 -3.09145,-0.512605 -4.6506,-0.41317 z m 0.24083,3.732774 c 8.30927,0.103612 14.49722,7.08195 20.98038,11.466386 34.54521,27.726493 47.43416,78.604804 30.32495,119.450674 -15.0807,38.80267 -55.32744,65.73046 -96.94813,65.07719 -42.2933,0.4729 -83.016048,-27.75064 -97.150534,-67.685 C 14.970702,122.3309 27.017737,74.448349 59.147797,46.990164 66.526546,41.752583 73.765568,33.04999 83.562188,33.663514 94.068777,34.829141 96.918515,50.532467 87.535786,55.337682 55.862694,72.98455 39.410798,113.41944 50.3355,148.11003 c 10.121979,36.91147 49.176514,62.66527 87.08908,57.45035 36.72888,-3.70135 67.79233,-35.58314 70.88259,-72.3089 3.59322,-31.63451 -13.83244,-63.841799 -41.66067,-78.997507 -8.554,-6.190624 -4.05395,-20.511199 6.50225,-20.831283 z"
       inkscape:connector-curvature="0"
       id="path4307"
       style="opacity:0.2;color:#000000;fill:#000000;fill-opacity:1;stroke:none;stroke-width:6;marker:none;visibility:visible;display:inline;overflow:visible;enable-background:accumulate" />
    <path
       d="m 127.87382,1.9951464 c -8.53866,0 -15.41274,6.8740828 -15.41274,15.4127416 l 0,3.853185 c 0,-8.538658 6.87408,-15.4127412 15.41274,-15.4127412 8.53866,0 15.41274,6.8740832 15.41274,15.4127412 l 0,-3.853185 c 0,-8.5386588 -6.87408,-15.4127416 -15.41274,-15.4127416 z m 45.0341,27.6947696 a 15.414283,15.414283 0 0 0 -14.32903,17.098511 15.414283,15.414283 0 0 1 14.32903,-13.245325 15.414283,15.414283 0 0 1 8.9105,2.167417 c 33.76045,19.491608 52.97316,54.697346 53.82418,91.151921 0.47414,-37.817678 -18.86735,-74.822765 -53.82418,-95.005107 a 15.414283,15.414283 0 0 0 -8.9105,-2.167417 z m -92.476445,0.120413 a 15.428256,15.428256 0 0 0 -6.50225,2.047004 C 57.528673,41.326197 43.902934,54.951932 34.434074,71.352484 24.461622,88.625273 19.899277,107.59499 20.105041,126.26038 20.538432,108.86104 25.152356,91.282076 34.434074,75.205669 43.902934,58.805117 57.528673,45.179383 73.929225,35.710519 a 15.428256,15.428256 0 0 1 22.9987,11.077908 15.428256,15.428256 0 0 0 -16.49645,-16.978098 z M 50.810112,126.38079 c -1.023232,27.5523 12.859629,54.65588 38.531854,69.47775 37.017104,21.37183 83.868294,8.84068 105.240124,-28.17642 7.2387,-12.5378 10.52951,-26.19357 10.35544,-39.61556 -0.45218,12.17571 -3.80547,24.41749 -10.35544,35.76237 -21.37183,37.01711 -68.22302,49.54826 -105.240124,28.17642 C 64.86266,177.87222 51.149967,152.58642 50.810112,126.38079 z"
       inkscape:connector-curvature="0"
       id="path4298"
       style="opacity:0.6;color:#000000;fill:#000000;fill-opacity:1;stroke:none;stroke-width:6;marker:none;visibility:visible;display:inline;overflow:visible;enable-background:accumulate" />
  </g>
</svg>
