<?xml version="1.0" encoding="UTF-8" standalone="no"?>
<!-- Created with Inkscape (http://www.inkscape.org/) -->

<svg
   xmlns:dc="http://purl.org/dc/elements/1.1/"
   xmlns:cc="http://creativecommons.org/ns#"
   xmlns:rdf="http://www.w3.org/1999/02/22-rdf-syntax-ns#"
   xmlns:svg="http://www.w3.org/2000/svg"
   xmlns="http://www.w3.org/2000/svg"
   xmlns:xlink="http://www.w3.org/1999/xlink"
   xmlns:sodipodi="http://sodipodi.sourceforge.net/DTD/sodipodi-0.dtd"
   xmlns:inkscape="http://www.inkscape.org/namespaces/inkscape"
   version="1.0"
   width="256"
   height="256"
   id="svg2408"
   inkscape:version="0.48.1 r9760"
   sodipodi:docname="help-contents.svg">
  <sodipodi:namedview
     pagecolor="#ffffff"
     bordercolor="#666666"
     borderopacity="1"
     objecttolerance="10"
     gridtolerance="10"
     guidetolerance="10"
     inkscape:pageopacity="0"
     inkscape:pageshadow="2"
     inkscape:window-width="983"
     inkscape:window-height="534"
     id="namedview3770"
     showgrid="false"
     inkscape:zoom="1.4882812"
     inkscape:cx="116.24147"
     inkscape:cy="128"
     inkscape:window-x="41"
     inkscape:window-y="24"
     inkscape:window-maximized="1"
     inkscape:current-layer="svg2408" />
  <defs
     id="defs2410">
    <linearGradient
       id="linearGradient3731">
      <stop
         id="stop3733"
         style="stop-color:#3875d0;stop-opacity:1;"
         offset="0" />
      <stop
         id="stop3759"
         style="stop-color:#0066ff;stop-opacity:1;"
         offset="1" />
    </linearGradient>
    <linearGradient
       x1="45.447727"
       y1="92.539597"
       x2="45.447727"
       y2="7.0165396"
       id="ButtonShadow"
       gradientUnits="userSpaceOnUse"
       gradientTransform="scale(1.0058652,0.994169)">
      <stop
         id="stop3750"
         style="stop-color:#000000;stop-opacity:1"
         offset="0" />
      <stop
         id="stop3752"
         style="stop-color:#000000;stop-opacity:0.58823532"
         offset="1" />
    </linearGradient>
    <filter
       color-interpolation-filters="sRGB"
       id="filter3174">
      <feGaussianBlur
         id="feGaussianBlur3176"
         stdDeviation="1.71" />
    </filter>
    <linearGradient
       inkscape:collect="always"
       xlink:href="#linearGradient3731"
       id="linearGradient4856"
       gradientUnits="userSpaceOnUse"
       gradientTransform="matrix(3.1813636,0,0,3.0737426,-24.168307,-19.985318)"
       x1="48.082497"
       y1="75.561722"
       x2="46.654823"
       y2="16.972879" />
    <linearGradient
       inkscape:collect="always"
       xlink:href="#linearGradient3731"
       id="linearGradient4432"
       gradientUnits="userSpaceOnUse"
       gradientTransform="matrix(3.1813636,0,0,3.0722847,-24.168307,-19.864786)"
       x1="48.082497"
       y1="75.561722"
       x2="46.654823"
       y2="16.972879" />
  </defs>
  <metadata
     id="metadata2413">
    <rdf:RDF>
      <cc:Work
         rdf:about="">
        <dc:format>image/svg+xml</dc:format>
        <dc:type
           rdf:resource="http://purl.org/dc/dcmitype/StillImage" />
        <dc:title />
      </cc:Work>
    </rdf:RDF>
  </metadata>
  <g
     id="layer2"
     style="display:none"
     transform="translate(0,160)">
    <rect
       width="86"
       height="85"
       rx="6"
       ry="6"
       x="5"
       y="7"
       id="rect3745"
       style="opacity:0.9;fill:url(#ButtonShadow);fill-opacity:1;fill-rule:nonzero;stroke:none;filter:url(#filter3174)" />
  </g>
  <g
     id="g4438">
    <path
       d="M 128.53715,23.147199 C 85.05359,22.769395 39.031937,43.544826 19.078354,83.15276 c -1.52e-4,3.01e-4 0.0045,0.08449 0,0.09601 l 0.09942,0 c -0.09411,0.183598 -0.106417,0.391919 -0.198835,0.576052 -0.0384,0.123722 -0.08812,0.211036 -0.09942,0.288028 -15.1980332,30.600365 -7.478568,68.496705 17.000412,92.264545 a 3.1529643,3.0448591 0 0 0 0.39767,0.48004 3.1529643,3.0448591 0 0 0 0.09942,0.19202 c 0.01686,0.0172 0.0824,-0.0172 0.09942,0 6.05736,6.12427 12.917462,11.29302 20.181775,15.84147 -3.033367,8.06281 -10.608146,14.86473 -19.287017,16.60954 a 3.1529643,3.0448591 0 0 0 -0.09942,0 c -0.0023,5.1e-4 -0.395428,0.0954 -0.397671,0.0961 -0.0022,6.7e-4 -0.395475,0.19122 -0.39767,0.19203 -0.0022,7.9e-4 -0.395536,0.0951 -0.397671,0.0961 -0.0021,9.3e-4 -0.395602,0.19094 -0.39767,0.19201 -0.0021,0.001 -0.395679,0.19082 -0.397671,0.19202 -0.002,0.001 -0.296344,0.1907 -0.298253,0.19202 -0.0019,0.001 -0.296439,0.28658 -0.298252,0.28803 -0.0015,0.001 -0.226609,0.22734 -0.298253,0.28802 -0.01368,0.0117 -0.09913,-2.5e-4 -0.09942,0 l 0.09942,0.096 c -3.598536,3.1781 -6.224201,7.2635 -5.368551,11.80909 0.843834,4.48285 4.419031,7.13219 7.555738,8.6408 5.369808,2.58264 11.629402,3.12245 17.298665,2.0162 0.09611,-0.0188 0.202557,0.0197 0.298253,0 a 3.1529643,3.0448591 0 0 0 0.695923,0.096 c 19.620621,-1.08293 38.409605,-9.11993 52.790754,-21.98604 47.63829,7.62623 101.17485,-10.29188 126.95629,-51.8448 18.51889,-30.2206 14.24355,-70.680503 -10.24002,-96.680966 -0.0178,-0.01905 0.0178,-0.07708 0,-0.096 -0.0178,-0.01597 -0.14383,-0.258226 0,-0.096 C 200.62892,36.213082 163.9635,23.082814 128.53715,23.147199 z"
       id="path4916"
       style="opacity:0.05;fill:#000000;fill-opacity:1;stroke:none;display:inline"
       inkscape:connector-curvature="0" />
    <path
       d="M 128.53715,26.219484 C 86.116233,25.850911 41.266562,46.1762 21.961465,84.496885 c -0.01272,0.02519 0.01273,0.07091 0,0.096 -15.2377032,29.73077 -7.528025,67.24608 16.702159,90.24837 l 0,0.0959 c 6.48563,6.56721 13.920486,12.1361 21.871875,16.89757 -2.772425,10.0891 -11.95218,18.50774 -22.567798,20.64192 a 3.2598828,3.1481117 0 0 0 -1.491264,0.76807 c -3.194039,2.80236 -4.972866,5.94139 -4.374375,9.12084 0.598491,3.17946 3.208179,5.25049 5.865639,6.52861 5.072592,2.43968 11.505506,2.98274 16.702159,1.63214 l 0,0.0961 c 19.354859,-1.06827 38.02187,-9.11259 51.99541,-22.08205 46.84269,8.07614 99.99744,-9.48605 125.26619,-50.21266 17.7905,-29.03193 13.70273,-68.271297 -9.84234,-93.224637 -0.0305,-0.03443 -0.0689,-0.06162 -0.0994,-0.096 C 198.9581,39.035731 163.14961,26.156566 128.53717,26.219474 z m -20.08236,52.228841 c -0.6824,1.532805 -1.42093,3.186898 -1.98835,4.320399 -0.83068,1.659385 -1.54415,2.151878 -1.39185,2.112196 0.0762,-0.01997 0.10218,0.03011 -0.39767,-0.192018 -0.38803,-0.172539 -1.17938,-0.758931 -1.98835,-1.440132 -0.39124,-0.785495 -0.54973,-1.162701 -0.19884,-1.728161 0.40876,-0.658716 1.59607,-1.574429 3.28078,-2.400222 0.85919,-0.421147 1.67044,-0.347706 2.68428,-0.672062 z m 37.77869,1.824168 c 7.34558,5.050372 11.10786,15.053876 6.16389,22.946127 a 3.2598828,3.1481117 0 0 0 -0.19883,0.38403 c -0.98649,2.29286 -4.39876,5.34144 -8.05283,7.87274 5.04671,-9.61239 5.62438,-20.95844 2.08777,-31.202897 z m -21.97129,81.703567 a 3.2598828,3.1481117 0 0 0 0.69592,0.0961 c 2.37996,-0.16348 2.53057,0.26123 2.78369,0.76806 0.25315,0.50683 0.2924,1.89869 -0.29825,3.1683 -0.59064,1.2696 -1.66568,2.19313 -2.38602,2.40022 -0.67532,0.19417 -1.47416,0.0613 -2.98253,-1.44014 -0.88045,-1.17287 -0.96026,-2.65637 -0.49709,-3.64833 0.47517,-1.01764 0.91553,-1.61252 2.68428,-1.34413 z"
       id="path4912"
       style="opacity:0.05;fill:#000000;fill-opacity:1;stroke:none;display:inline"
       inkscape:connector-curvature="0" />
    <path
       d="M 128.53715,29.387778 C 87.191158,29.028544 43.43105,48.887538 24.822768,85.912072 10.206638,114.33888 17.71634,150.71118 40.981559,172.75456 c 6.882346,6.97901 14.841373,12.93952 23.431227,17.83216 -2.308156,12.3393 -13.14479,22.42832 -25.749162,24.96231 -11.027134,9.6749 7.716547,14.40225 15.821278,11.9267 19.098829,-1.05414 37.682148,-9.11465 51.186188,-22.19965 45.96588,8.52035 98.77328,-8.71514 123.48756,-48.54808 17.03949,-27.8064 12.99329,-65.725525 -9.6037,-89.584673 -22.28292,-25.197831 -57.20186,-37.817011 -91.0178,-37.755549 z m -12.22837,43.972075 c -7.05536,3.012089 -5.82764,21.788951 -16.51038,11.702252 -4.474458,-7.794527 11.05716,-11.769677 16.51038,-11.702252 z m 22.26954,0.672062 c 14.39931,1.738142 24.47845,18.318679 16.64266,30.827255 -3.37405,7.84213 -18.784,15.27207 -21.91852,15.45896 12.27884,-10.44643 15.63139,-29.114346 8.64591,-43.22339 -0.90296,-1.22998 -2.17383,-2.125272 -3.37005,-3.062825 z m -10.14059,49.348575 c -3.14235,4.28729 -3.17126,14.52892 -4.20464,3.77875 -0.0512,-2.19702 2.24941,-3.45668 4.20464,-3.77875 z m -3.67845,35.52329 c 12.9796,-0.89162 3.89842,19.87933 -5.28511,10.12077 -3.40412,-4.25507 -0.79896,-11.04398 5.28511,-10.12077 z"
       inkscape:connector-curvature="0"
       id="path4906"
       style="opacity:0.12000002;fill:#000000;fill-opacity:1;stroke:none;display:inline" />
    <path
       d="m 128.53715,32.268044 c -59.421106,0 -108.265784,38.230415 -108.265784,86.119986 0,29.71045 19.212267,55.54919 47.621036,70.95057 -0.667733,3.65247 -2.084821,8.71588 -5.567386,13.92129 -3.978311,5.9464 -10.397371,11.6656 -21.474204,14.68936 a 3.2557706,3.1441405 0 0 0 0.497088,6.24058 c 30.875537,3.24051 51.86439,-10.81948 63.32902,-21.98604 7.7058,1.38673 15.6241,2.30422 23.86023,2.30422 59.4211,0 108.26578,-38.23042 108.26578,-86.11998 0,-47.889571 -48.84468,-86.119986 -108.26578,-86.119986 z m -2.88311,37.251452 c 5.23908,1.05e-4 10.05285,0.633623 14.41555,1.82417 4.35212,1.142205 8.07308,2.734216 11.13477,4.896453 a 3.2557706,3.1441405 0 0 0 0,0.096 c 3.03724,2.101458 5.3599,4.658926 7.05865,7.680711 1.65734,2.948503 2.48537,6.237236 2.48544,10.176944 -7e-5,3.700441 -0.541,6.922561 -1.6901,9.696911 a 3.2557706,3.1441405 0 0 0 -0.0994,0 c -1.1204,2.81303 -2.73744,5.3913 -5.0703,7.77672 -2.36761,2.42091 -5.34771,4.68244 -9.04701,6.81662 -3.70448,2.11826 -8.04482,4.22125 -13.12312,6.24058 a 3.2557706,3.1441405 0 0 0 -1.98835,2.20821 l -2.58486,11.23303 -4.17554,0 -2.38602,-13.82528 c 3.57064,-1.57952 6.98316,-3.20481 9.54409,-5.28048 3.05435,-2.52823 5.59962,-5.23103 7.45632,-8.25676 1.8412,-2.96346 3.18442,-6.15952 3.87729,-9.50488 0.65576,-3.166596 0.99411,-6.313048 0.99417,-9.504894 -6e-5,-2.609611 -0.27337,-5.055964 -0.79534,-7.296676 -0.51567,-2.268255 -1.30603,-4.415386 -2.58486,-6.240578 -0.0264,-0.04028 -0.0726,-0.05616 -0.0994,-0.09602 -1.29333,-1.920638 -3.09853,-3.33745 -5.0703,-4.3204 -2.09612,-1.079431 -4.43654,-1.536023 -6.95924,-1.536142 -2.8256,1.23e-4 -5.45563,0.67339 -7.65515,2.112196 -1.98553,1.299011 -3.75269,3.017425 -4.97088,5.18448 -1.17915,2.097682 -1.88454,4.479505 -2.38603,7.00865 a 3.2557706,3.1441405 0 0 0 0,0.096 c -0.25148,1.426766 -0.295,2.928137 -0.39767,4.41641 -1.87439,-0.09788 -3.85984,-0.12028 -5.46796,-0.384036 -2.44842,-0.401436 -4.36991,-1.02269 -6.06448,-1.72816 -0.03086,-0.01413 -0.06897,0.01413 -0.09942,0 -1.526011,-0.708506 -2.555694,-1.474884 -3.280781,-2.304214 -0.02481,-0.02827 -0.07534,-0.06744 -0.09942,-0.096 -0.610361,-0.794997 -0.894762,-1.670481 -0.894759,-2.688249 -6e-6,-1.912888 0.444624,-3.51278 1.491264,-5.184481 1.009581,-1.649875 2.655783,-3.258478 4.970876,-4.608427 2.3236,-1.329654 5.49072,-2.426023 9.44467,-3.264302 3.88495,-0.869212 8.55888,-1.344018 14.11731,-1.344126 z m -0.89476,86.504024 c 1.49492,1e-5 2.8564,0.16596 4.07612,0.48004 1.14882,0.28633 2.10597,0.72419 2.88311,1.34412 0.75151,0.59957 1.41176,1.36202 1.88893,2.49624 a 3.2557706,3.1441405 0 0 0 0,0.096 c 0.42245,0.90342 0.69588,2.44657 0.69593,4.51242 -5e-5,2.01133 -0.2632,3.491 -0.69593,4.41641 -0.48499,1.1168 -1.18069,2.02721 -1.88893,2.59225 -0.69273,0.5526 -1.61027,0.93088 -2.88311,1.2481 a 3.2557706,3.1441405 0 0 0 -0.0994,0.0961 c -1.22115,0.35377 -2.54257,0.48004 -3.9767,0.48004 -1.49365,0 -2.77671,-0.11574 -4.07613,-0.48004 a 3.2557706,3.1441405 0 0 0 -0.0994,-0.0961 c -1.27291,-0.31722 -2.19052,-0.69557 -2.88311,-1.2481 -0.65723,-0.54813 -1.2827,-1.42507 -1.78952,-2.59225 -0.44381,-1.02199 -0.69595,-2.45069 -0.69592,-4.41641 -3e-5,-2.0212 0.26128,-3.51155 0.69592,-4.51242 a 3.2557706,3.1441405 0 0 0 0,-0.096 c 0.49794,-1.18371 1.0895,-1.9124 1.78952,-2.49624 0.777,-0.61986 1.73421,-1.05779 2.88311,-1.34412 1.29669,-0.32315 2.62283,-0.48003 4.17554,-0.48004 z"
       id="path4902"
       style="opacity:0.23999999;fill:#000000;fill-opacity:1;stroke:none;display:inline"
       inkscape:connector-curvature="0" />
    <path
       d="m 128.53715,32.364054 c -57.981619,0 -104.985003,37.138735 -104.985003,82.951696 0,29.1819 19.087418,54.82019 47.919289,69.60645 -1.096377,7.7076 -6.089174,26.57469 -29.725866,33.02705 30.613992,3.21307 50.945087,-11.20249 61.73834,-22.08205 8.02819,1.55304 16.41923,2.40023 25.05324,2.40023 57.98161,0 104.98499,-37.13873 104.98499,-82.95168 0,-45.812961 -47.00338,-82.951696 -104.98499,-82.951696 z m -2.88311,30.914865 c 5.50101,1.1e-4 10.62417,0.641363 15.31031,1.920178 4.68603,1.229838 8.71619,3.062333 12.12895,5.472507 3.41262,2.361185 6.11719,5.293651 8.05282,8.736809 1.93549,3.443343 2.88303,7.33532 2.88311,11.713086 -8e-5,4.033603 -0.66409,7.651774 -1.98835,10.849011 -1.27347,3.19737 -3.16857,6.08064 -5.76622,8.7368 -2.59779,2.65629 -5.82093,5.13004 -9.74293,7.39269 -3.87117,2.21357 -8.42481,4.36669 -13.62021,6.43259 l -3.18136,13.72928 -9.54409,0 -3.08195,-18.62573 c 4.48231,-1.72157 8.0835,-3.7366 10.93594,-6.04855 2.85236,-2.36103 5.1304,-4.83241 6.7604,-7.4887 1.68083,-2.70535 2.86833,-5.49735 3.47961,-8.448786 0.61118,-2.951283 0.89471,-5.928195 0.89476,-8.928827 -5e-5,-2.410193 -0.23757,-4.656951 -0.69592,-6.624615 -0.45848,-2.016669 -1.16852,-3.757895 -2.18719,-5.18448 -0.96783,-1.475584 -2.29833,-2.573183 -3.87729,-3.360311 -1.52811,-0.78693 -3.32871,-1.152006 -5.46797,-1.152107 -2.34308,1.01e-4 -4.28666,0.503265 -5.86564,1.536142 -1.57904,1.033075 -2.90954,2.40685 -3.87728,4.128383 -0.96781,1.721721 -1.62938,3.736752 -2.08777,6.048561 -0.40752,2.311982 -0.59654,4.738913 -0.59651,7.296675 -3.20898,8e-5 -6.24801,-0.229284 -8.94758,-0.672062 -2.69962,-0.442624 -4.97275,-1.083875 -6.959236,-1.920178 -1.93557,-0.885322 -3.452632,-1.936104 -4.57321,-3.264302 -1.069657,-1.328023 -1.690106,-2.933529 -1.690099,-4.704436 -7e-6,-2.459373 0.664017,-4.701392 1.988352,-6.816632 1.324322,-2.164231 3.364868,-4.090363 6.064473,-5.664525 2.75052,-1.573953 6.2621,-2.762823 10.43885,-3.648338 4.1767,-0.934491 9.05745,-1.440023 14.81323,-1.440133 z m -0.89476,86.504021 c 1.73177,2e-5 3.34335,0.18255 4.87146,0.57605 1.57896,0.39354 3.00397,1.08161 4.17554,2.01619 1.17147,0.93462 2.12148,2.1703 2.78369,3.74434 0.71305,1.52489 0.99413,3.44865 0.99418,5.76054 -5e-5,2.26272 -0.28114,4.13965 -0.99418,5.66452 -0.66221,1.52488 -1.61222,2.80976 -2.78369,3.74434 -1.17157,0.93461 -2.59658,1.52667 -4.17554,1.92018 -1.52811,0.4427 -3.13969,0.67206 -4.87146,0.67206 -1.78279,0 -3.39191,-0.22937 -4.97088,-0.67206 -1.57905,-0.39351 -3.00405,-0.98557 -4.17554,-1.92018 -1.12062,-0.93458 -2.02214,-2.21946 -2.68428,-3.74434 -0.66219,-1.52487 -0.9942,-3.4018 -0.99418,-5.66452 -2e-5,-2.31189 0.33199,-4.23565 0.99418,-5.76054 0.66214,-1.57404 1.56366,-2.80972 2.68428,-3.74434 1.17149,-0.93458 2.59649,-1.62265 4.17554,-2.01619 1.57897,-0.3935 3.18809,-0.57603 4.97088,-0.57605 z"
       inkscape:connector-curvature="0"
       id="path3620"
       style="fill:url(#linearGradient4432);fill-opacity:1;stroke:none;display:inline" />
    <path
       d="m 128.53715,32.364054 c -57.981619,0 -104.985003,37.138735 -104.985003,82.951696 0,0.41545 -0.0076,0.83411 0,1.2481 1.244336,-44.959114 47.785402,-81.127512 104.985003,-81.127512 57.32307,0 103.93401,36.321358 104.98499,81.415552 0.0121,-0.51806 0,-1.01581 0,-1.53614 0,-45.812961 -47.00338,-82.951696 -104.98499,-82.951696 z m -1.59069,40.03571 c -2.34308,1.01e-4 -4.28666,0.503265 -5.86564,1.536142 -1.57904,1.033075 -2.90954,2.40685 -3.87728,4.128383 -0.96781,1.721721 -1.62938,3.736752 -2.08777,6.048561 -0.40752,2.311982 -0.59654,4.738913 -0.59651,7.296675 -3.20898,8e-5 -6.24801,-0.229284 -8.94758,-0.672062 -2.69962,-0.442624 -4.97275,-1.083875 -6.959236,-1.920178 -1.93557,-0.885322 -3.452632,-1.936104 -4.57321,-3.264302 -0.802244,-0.996016 -1.366042,-2.195418 -1.590682,-3.456321 -0.08294,0.58909 -0.09942,1.209325 -0.09942,1.82417 -7e-6,1.770907 0.620442,3.376412 1.690099,4.704435 1.120578,1.328198 2.63764,2.378981 4.57321,3.264303 1.986489,0.836303 4.259619,1.477554 6.959239,1.920178 2.69957,0.442778 5.7386,0.672142 8.94758,0.672062 -3e-5,-2.557763 0.18901,-4.984692 0.59651,-7.296676 0.45839,-2.311808 1.11996,-4.32684 2.08777,-6.04856 0.96774,-1.721534 2.29824,-3.095309 3.87728,-4.128383 1.57898,-1.032878 3.52256,-1.536041 5.86564,-1.536142 2.13926,1.01e-4 3.93986,0.365178 5.46797,1.152106 1.57896,0.787129 2.90946,1.884727 3.87729,3.360312 1.01867,1.426585 1.72871,3.167811 2.18719,5.18448 0.36915,1.584724 0.52253,3.394119 0.5965,5.28049 0.021,-0.573153 0.0994,-1.153253 0.0994,-1.72816 -5e-5,-2.410193 -0.23757,-4.656951 -0.69592,-6.624615 -0.45848,-2.016669 -1.16852,-3.757895 -2.18719,-5.18448 -0.96783,-1.475584 -2.29833,-2.573183 -3.87729,-3.360311 -1.52811,-0.78693 -3.32871,-1.152006 -5.46797,-1.152107 z m 36.98336,20.737922 c -0.18685,3.233097 -0.78907,6.177323 -1.88894,8.832824 -1.27347,3.19737 -3.16857,6.08064 -5.76622,8.7368 -2.59779,2.65629 -5.82093,5.13004 -9.74293,7.39269 -3.87117,2.21357 -8.42481,4.36669 -13.62021,6.43259 l -3.18136,13.72928 -9.54409,0 -2.58486,-15.74546 c -0.17008,0.0672 -0.32441,0.12569 -0.49709,0.19202 l 3.08195,18.62572 9.54409,0 3.18136,-13.72927 c 5.1954,-2.06591 9.74904,-4.21902 13.62021,-6.43259 3.922,-2.26266 7.14514,-4.73641 9.74293,-7.3927 2.59765,-2.65616 4.49275,-5.53943 5.76622,-8.7368 1.32426,-3.19723 1.98827,-6.815404 1.98835,-10.849006 0,-0.365483 -0.0862,-0.697366 -0.0994,-1.056098 z m -51.896,70.278514 c -0.0388,0.51349 -0.0994,0.97712 -0.0994,1.53614 -2e-5,2.26272 0.33199,4.13967 0.99418,5.66452 0.66214,1.52488 1.56366,2.80976 2.68428,3.74436 1.17149,0.93459 2.59649,1.52665 4.17554,1.92018 1.57897,0.44268 3.18809,0.67205 4.97088,0.67206 1.73177,-1e-5 3.34335,-0.22938 4.87146,-0.67206 1.57896,-0.39353 3.00397,-0.98559 4.17554,-1.92018 1.17147,-0.9346 2.12148,-2.21948 2.78369,-3.74436 0.71304,-1.52485 0.99413,-3.4018 0.99418,-5.66452 -1e-5,-0.56052 -0.0642,-1.0214 -0.0994,-1.53614 -0.11249,1.55395 -0.35997,2.98473 -0.89476,4.12838 -0.66221,1.52488 -1.61222,2.80976 -2.78369,3.74434 -1.17157,0.93461 -2.59658,1.52667 -4.17554,1.92018 -1.52811,0.4427 -3.13969,0.67206 -4.87146,0.67206 -1.78279,0 -3.39191,-0.22937 -4.97088,-0.67206 -1.57905,-0.39351 -3.00405,-0.98557 -4.17554,-1.92018 -1.12062,-0.93458 -2.02214,-2.21946 -2.68428,-3.74434 -0.49712,-1.14476 -0.77059,-2.57251 -0.89476,-4.12838 z m -41.059472,24.29025 c -1.848286,8.75492 -8.040575,24.45884 -29.228778,30.2428 2.515733,0.26404 4.979636,0.34635 7.356903,0.38404 17.355029,-7.95167 21.397368,-23.50842 22.368963,-30.33881 -0.172461,-0.0885 -0.325313,-0.19881 -0.497088,-0.28803 z"
       inkscape:connector-curvature="0"
       id="path4889"
       style="opacity:0.8;fill:#ffffff;fill-opacity:1;stroke:none;display:inline" />
  </g>
</svg>
